<svg id="Capa_1" enable-background="new 0 0 512 512" height="512" viewBox="0 0 512 512" width="512" xmlns="http://www.w3.org/2000/svg" xmlns:xlink="http://www.w3.org/1999/xlink"><linearGradient id="SVGID_1_" gradientUnits="userSpaceOnUse" x1="256" x2="256" y1="481" y2="31"><stop offset="0" stop-color="#fd5900"/><stop offset="1" stop-color="#ffde00"/></linearGradient><linearGradient id="SVGID_2_" gradientUnits="userSpaceOnUse" x1="225.5" x2="225.5" y1="429.789" y2="181"><stop offset="0" stop-color="#ffe59a"/><stop offset="1" stop-color="#ffffd5"/></linearGradient><g><g><g><path d="m497 31h-422c-8.291 0-15 6.709-15 15v270l-60 113.789v36.211c0 8.291 6.709 15 15 15h421c8.291 0 15-6.709 15-15v-36.211l-38.789-98.789h84.789c8.291 0 15-6.709 15-15v-270c0-8.291-6.709-15-15-15z" fill="url(#SVGID_1_)"/></g></g><g><g><path d="m436 181h-421c-8.291 0-15 6.709-15 15v233.789l155.395-154.395c5.86-5.86 15.355-5.856 21.211 0l79.394 79.395 49.395-49.395c5.859-5.859 15.352-5.859 21.211 0l124.394 124.395v-233.789c0-8.291-6.709-15-15-15z" fill="url(#SVGID_2_)"/></g></g></g></svg>