<?xml version="1.0" encoding="iso-8859-1"?>
<!-- Generator: Adobe Illustrator 19.0.0, SVG Export Plug-In . SVG Version: 6.00 Build 0)  -->
<svg version="1.1" id="Capa_1" xmlns="http://www.w3.org/2000/svg" xmlns:xlink="http://www.w3.org/1999/xlink" x="0px" y="0px"
	 viewBox="0 0 512 512" style="enable-background:new 0 0 512 512;" xml:space="preserve">
<g>
	<g>
		<path fill="hsl(0, 0%, 100%)" d="M256,0c-21.621,0-42.612,2.693-62.667,7.74v179.129L417.549,57.418C373.486,21.529,317.26,0,256,0z"/>
	</g>
</g>
<g>
	<g>
		<path fill="hsl(0, 0%, 90%)" d="M440.664,78.714L290,165.7l219.416,126.679C511.106,280.494,512,268.352,512,256
			C512,187.184,484.841,124.717,440.664,78.714z"/>
	</g>
</g>
<g>
	<g>
		<path fill="hsl(0, 0%, 80%)" d="M8.177,191.59l155.156,89.58V17.3C87.317,46.832,28.903,111.617,8.177,191.59z"/>
	</g>
</g>
<g>
	<g>
		<path fill="hsl(0, 0%, 70%)" d="M356.667,238.831v252.605c71.187-30.478,125.75-92.293,146.365-168.102L356.667,238.831z"/>
	</g>
</g>
<g>
	<g>
		<path fill="hsl(0, 0%, 60%)" d="M2.147,222.75C0.735,233.634,0,244.731,0,256c0,72.887,30.46,138.658,79.345,185.281L230,354.3L2.147,222.75z"/>
	</g>
</g>
<g>
	<g>
		<path fill="hsl(0, 0%, 50%)" d="M103.765,461.823C146.316,493.347,198.977,512,256,512c24.514,0,48.22-3.452,70.667-9.885V333.131L103.765,461.823z"/>
	</g>
</g>
<g>
</g>
<g>
</g>
<g>
</g>
<g>
</g>
<g>
</g>
<g>
</g>
<g>
</g>
<g>
</g>
<g>
</g>
<g>
</g>
<g>
</g>
<g>
</g>
<g>
</g>
<g>
</g>
<g>
</g>
</svg>
